. 
 
http://www.torrenting.com          :     Once & For all ;)


               www . Torrenting . Com 

(((((((((((((= Enjoy No RAR releases =))))))))))))))))))))


...................................NFO:....................................

.[center][img]http://lookpic.com/O/i2/151/W29m2AKH.jpeg[/img][/center]
[img]http://lookpic.com/O/i2/298/l4OrvnSi.png[/img]


Source: 720p SPARKS RERiP thanx

A Very Harold And Kumar Christmas 2011 BRRip XVID AC3-PREMIUM

Format                           : AVI
Format/Info                      : Audio Video Interleave
File size                        : 1.35 GiB
Duration                         : 1h 29mn
Overall bit rate                 : 2 160 Kbps
Writing application              : VirtualDubMod 1.5.10.2 (build 2542/release)
Writing library                  : VirtualDubMod build 2542/release

Video
ID                               : 0
Format                           : MPEG-4 Visual
Format profile                   : Advanced Simple@L5
Format settings, BVOP            : 2
Format settings, QPel            : No
Format settings, GMC             : No warppoints
Format settings, Matrix          : Default (H.263)
Muxing mode                      : Packed bitstream
Codec ID                         : XVID
Codec ID/Hint                    : XviD
Duration                         : 1h 29mn
Bit rate                         : 1 767 Kbps
Width                            : 720 pixels
Height                           : 304 pixels
Display aspect ratio             : 2.35:1
Frame rate                       : 23.976 fps
Color space                      : YUV
Chroma subsampling               : 4:2:0
Bit depth                        : 8 bits
Scan type                        : Progressive
Compression mode                 : Lossy
Bits/(Pixel*Frame)               : 0.337
Stream size                      : 1.11 GiB (82%)
Writing library                  : XviD 64

Audio
ID                               : 1
Format                           : AC-3
Format/Info                      : Audio Coding 3
Mode extension                   : CM (complete main)
Codec ID                         : 2000
Duration                         : 1h 29mn
Bit rate mode                    : Constant
Bit rate                         : 384 Kbps
Channel(s)                       : 6 channels
Channel positions                : Front: L C R, Side: L R, LFE
Sampling rate                    : 48.0 KHz
Bit depth                        : 16 bits
Compression mode                 : Lossy
Stream size                      : 246 MiB (18%)
Alignment                        : Split accross interleaves
Interleave, duration             : 42 ms (1.00 video frame)
Interleave, preload duration     : 500 ms[/b]



[IMG]http://lookpic.com/O/i2/1964/WcslQxoJ.png[/IMG]
[center][img]http://lookpic.com/O/i2/867/jP70PNS6.png[/img][/center]
[center][img]http://lookpic.com/O/i2/537/JsqPXPaS.png[/img][/center]
[center][img]http://lookpic.com/O/i2/566/jrqw7lr6.png[/img][/center]
[center][img]http://lookpic.com/O/i2/731/6I2BUBYI.png[/img][/center]